<svg width="40" height="42" viewBox="0 0 40 42" fill="none" xmlns="http://www.w3.org/2000/svg">
<path d="M18.115 31.462C16.6893 31.0457 15.3964 30.3553 14.2782 29.4368L14.0414 29.3405L6.44049 36.3328C9.51026 39.2897 13.4655 41.316 17.8722 42.0008L18.7938 37.2313C17.792 37.0818 16.8127 36.8656 15.8775 36.5476L18.115 31.462Z" fill="#F7931D"/>
<path d="M28.175 12.799C28.628 13.1848 29.0429 13.6012 29.4281 14.0552L37.3296 7.33576C33.9533 3.36047 29.1427 0.651409 23.693 0.000733376L23.3147 2.27484C26.6845 2.66414 29.7954 3.89375 32.3926 5.81167L28.175 12.799Z" fill="#F7931D"/>
<path d="M35.4385 33.4995L33.2592 31.9081C32.895 32.3155 32.5418 32.7309 32.1385 33.0996L35.2464 36.8958C36.7158 35.5869 38.0006 34.0829 39.0606 32.4153L37.0349 31.3844C36.5517 32.1269 36.0185 32.8337 35.4385 33.4995Z" fill="#F7931D"/>
<path d="M2.39802 23.7007C2.32829 23.2055 2.31675 22.6943 2.28063 22.1896L0 22.4399C0.0953188 23.9229 0.339134 25.3637 0.724423 26.7484L10.4098 23.0926V22.4921C10.3872 22.3226 10.3727 22.1515 10.3576 21.9794L2.39802 23.7007Z" fill="#F7931D"/>
<path d="M25.0642 7.50944L24.6328 10.7939C25.9462 11.2404 27.1361 11.9222 28.1696 12.8016L32.3877 5.81427C29.7905 3.89635 26.6796 2.66674 23.3093 2.27744C22.596 2.19516 21.8861 2.10035 21.1501 2.10035C19.6641 2.10035 18.2253 2.28848 16.8382 2.61156L18.0653 7.29422C19.0576 7.07097 20.0891 6.94806 21.1501 6.94806C22.5097 6.94806 23.8205 7.15074 25.0642 7.50944Z" fill="#EE2B7B"/>
<path d="M31.2366 25.1165C30.891 25.9749 30.4284 26.764 29.8866 27.498L34.2532 30.8477C33.9612 31.2375 33.5799 31.5455 33.2549 31.9077L35.4341 33.499C36.0141 32.8333 36.5474 32.1264 37.0305 31.384C38.4914 29.1389 39.4872 26.5673 39.889 23.7971L35.086 22.8017C34.9234 24.1041 34.6495 25.3723 34.1564 26.5397L31.2366 25.1165Z" fill="#EE2B7B"/>
<path d="M10.3597 21.98C10.3336 21.6714 10.2669 21.3739 10.2669 21.0589C10.2669 20.5908 10.3477 20.1458 10.4049 19.6933L2.32684 18.8932C2.24557 19.605 2.1944 20.3254 2.1944 21.0589C2.1944 21.4437 2.2551 21.8124 2.28219 22.1902C2.31881 22.6949 2.33035 23.2056 2.40008 23.7012L10.3597 21.98Z" fill="#EE2B7B"/>
<path d="M10.4093 11.9399C11.8491 10.2453 13.7028 8.94341 15.7843 8.075L14.5798 6.06679C10.1485 8.01229 6.7536 11.8612 5.41312 16.5804L10.6195 18.4341C11.0224 16.8162 11.7914 15.3599 12.8269 14.1192L10.4093 11.9399Z" fill="#00AEEF"/>
<path d="M34.2574 30.8479L29.8908 27.4982C27.9082 30.1832 24.7476 31.9456 21.1536 31.9456C20.0925 31.9456 19.0867 31.7464 18.1169 31.4635L15.8794 36.5485C16.8146 36.867 17.7943 37.0833 18.7957 37.2328C19.5673 37.3476 20.3489 37.4329 21.1536 37.4329C25.4073 37.4329 29.2311 35.7618 32.1383 33.0994C32.5416 32.7307 32.8948 32.3153 33.2596 31.9079C33.5841 31.5462 33.9654 31.2377 34.2574 30.8479Z" fill="#00AEEF"/>
<path d="M12.8193 14.1193C14.816 11.7258 17.7839 10.1716 21.1447 10.1716C22.3703 10.1716 23.5281 10.4189 24.6268 10.7922L25.0583 7.50771C23.8146 7.14901 22.5042 6.94633 21.1447 6.94633C20.0831 6.94633 19.0522 7.06925 18.0593 7.29299C17.2622 7.47209 16.5152 7.76708 15.7767 8.07511C13.6952 8.94402 11.8415 10.2454 10.4017 11.94L12.8193 14.1193Z" fill="#39B54A"/>
<path d="M31.2434 25.1156L34.1632 26.5388C34.6563 25.3714 34.9302 24.1032 35.0928 22.8008C35.1645 22.2229 35.2678 21.655 35.2678 21.0575C35.2678 18.7222 34.6919 16.5253 33.6881 14.5853L30.826 16.1536C31.5785 17.6335 32.0431 19.2836 32.0431 21.0575C32.0431 22.4943 31.7491 23.8594 31.2434 25.1156Z" fill="#39B54A"/>
<path d="M8.32324 26.9133C8.89515 28.164 9.64215 29.3138 10.5361 30.3362L13.1103 28.3406C12.2885 27.4335 11.5922 26.4126 11.1116 25.2673L8.32324 26.9133Z" fill="#39B54A"/>
</svg>
