<svg width="15" height="15" viewBox="0 0 15 15" fill="none" xmlns="http://www.w3.org/2000/svg">
<path d="M14.5 9.75V13.25V13.2812C14.5 13.6875 14.1562 14.0312 13.75 14.0312V14H10.25C9.5625 14 9.21875 13.2188 9.71875 12.7188L10.8438 11.5938L7.5 8.25L4.125 11.5938L5.28125 12.7188C5.75 13.2188 5.40625 14 4.75 14H1.25H1.21875C0.8125 14 0.46875 13.6875 0.46875 13.2812C0.46875 13.2812 0.5 13.2812 0.5 13.25V9.75C0.5 9.09375 1.28125 8.75 1.78125 9.21875L2.90625 10.375L6.25 7L2.90625 3.65625L1.78125 4.78125C1.28125 5.28125 0.5 4.9375 0.5 4.25V0.75C0.5 0.34375 0.8125 0 1.21875 0C1.21875 0 1.21875 0 1.25 0H4.75C5.40625 0 5.75 0.8125 5.28125 1.28125L4.125 2.4375L7.5 5.78125L10.8438 2.4375L9.71875 1.28125C9.21875 0.8125 9.5625 0 10.25 0H13.75C14.1562 0 14.5 0.34375 14.5 0.75V4.25C14.5 4.9375 13.6875 5.28125 13.2188 4.78125L12.0625 3.65625L8.71875 7L12.0625 10.375L13.2188 9.25C13.6875 8.75 14.5 9.09375 14.5 9.75Z" fill="#33A9EC"/>
</svg>
