<svg width="21" height="24" viewBox="0 0 21 24" fill="none" xmlns="http://www.w3.org/2000/svg">
<g clip-path="url(#clip0_259_8095)">
<path d="M9 8.8125V18.9375C9 19.2481 8.74814 19.5 8.4375 19.5H7.3125C7.00186 19.5 6.75 19.2481 6.75 18.9375V8.8125C6.75 8.50186 7.00186 8.25 7.3125 8.25H8.4375C8.74814 8.25 9 8.50186 9 8.8125ZM13.6875 8.25H12.5625C12.2519 8.25 12 8.50186 12 8.8125V18.9375C12 19.2481 12.2519 19.5 12.5625 19.5H13.6875C13.9981 19.5 14.25 19.2481 14.25 18.9375V8.8125C14.25 8.50186 13.9981 8.25 13.6875 8.25ZM19.875 3.75C20.4963 3.75 21 4.25367 21 4.875V5.4375C21 5.74814 20.7481 6 20.4375 6H19.5V21.75C19.5 22.9927 18.4927 24 17.25 24H3.75C2.50734 24 1.5 22.9927 1.5 21.75V6H0.5625C0.251859 6 0 5.74814 0 5.4375V4.875C0 4.25367 0.503672 3.75 1.125 3.75H4.61302L6.20761 1.09238C6.40752 0.759202 6.69029 0.483475 7.0284 0.292042C7.36652 0.100609 7.74844 -3.73808e-06 8.13698 1.04163e-10L12.8631 1.04163e-10C13.2516 -3.73808e-06 13.6335 0.100609 13.9716 0.292042C14.3098 0.483475 14.5925 0.759202 14.7924 1.09238L16.387 3.75H19.875ZM7.23698 3.75H13.7631L12.945 2.38655C12.92 2.3449 12.8847 2.31043 12.8424 2.28651C12.8001 2.26258 12.7524 2.25 12.7038 2.25H8.29627C8.2477 2.25 8.19996 2.26258 8.15769 2.28651C8.11543 2.31043 8.08008 2.3449 8.05509 2.38655L7.23698 3.75ZM17.25 6H3.75V21.4688C3.75 21.5433 3.77963 21.6149 3.83238 21.6676C3.88512 21.7204 3.95666 21.75 4.03125 21.75H16.9688C17.0433 21.75 17.1149 21.7204 17.1676 21.6676C17.2204 21.6149 17.25 21.5433 17.25 21.4688V6Z" fill="#4C4C4C"/>
</g>
<defs>
<clipPath id="clip0_259_8095">
<rect width="21" height="24" fill="white"/>
</clipPath>
</defs>
</svg>
