<svg width="20" height="20" viewBox="0 0 20 20" fill="none" xmlns="http://www.w3.org/2000/svg">
<path fill-rule="evenodd" clip-rule="evenodd" d="M10 6.49998C10.3 6.49998 10.6 6.24998 10.6 5.89998V4.64998V2.29998V1.09998V0.699976C10.6 0.349976 10.3 0.0999756 10 0.0999756C9.65 0.0999756 9.4 0.349976 9.4 0.699976V1.09998V2.34998V4.64998V5.89998C9.4 6.24998 9.7 6.49998 10 6.49998ZM18.75 8.14998H17.5C17.2 6.79998 16.5 5.64998 15.45 4.54998C14.35 3.49998 13.2 2.79998 11.85 2.49998V1.24998C13.5 1.59998 15 2.39998 16.3 3.69998C17.6 4.99998 18.4 6.49998 18.75 8.14998ZM8.2 4.94998C7.45 5.19998 6.85 5.59998 6.25 6.19998C5.65 6.79998 5.25 7.44998 5 8.14998H5.95C6.05 8.14998 6.2 8.14998 6.3 8.19998C6.5 7.79998 6.75 7.39998 7.1 7.04998C7.45 6.69998 7.85 6.39998 8.25 6.24998C8.25 6.20503 8.2399 6.16008 8.22878 6.1106L8.22878 6.11059C8.21515 6.04998 8.2 5.98255 8.2 5.89998V4.94998ZM6.3 11.75C6.25 11.75 6.1875 11.7625 6.125 11.775L6.12498 11.775C6.06249 11.7875 6 11.8 5.95 11.8H5C5.25 12.5 5.7 13.15 6.25 13.75C6.85 14.35 7.5 14.75 8.2 15V14.05C8.2 13.95 8.2 13.8 8.25 13.7C7.85 13.5 7.45 13.25 7.1 12.9C6.75 12.55 6.45 12.15 6.3 11.75ZM13.925 8.17498C13.8625 8.18748 13.8 8.19998 13.75 8.19998C13.55 7.79998 13.25 7.39998 12.95 7.04998C12.6 6.69998 12.2 6.44998 11.8 6.24998C11.85 6.14998 11.85 5.99998 11.85 5.89998V4.94998C12.55 5.14998 13.2 5.59998 13.8 6.19998C14.35 6.79998 14.8 7.44998 15.05 8.14998H14.1C14.05 8.14998 13.9875 8.16248 13.925 8.17498ZM11.85 15C12.6 14.75 13.2 14.35 13.8 13.75C14.4 13.15 14.8 12.5 15.05 11.8H14.1C14 11.8 13.85 11.8 13.75 11.75C13.55 12.15 13.3 12.55 12.95 12.9C12.6 13.25 12.2 13.55 11.8 13.7C11.8 13.75 11.8125 13.8125 11.825 13.875C11.8375 13.9375 11.85 14 11.85 14.05V15ZM2.55 11.8H1.3C1.65 13.45 2.45 14.95 3.75 16.25C5.05 17.55 6.55 18.35 8.2 18.7V17.45C6.85 17.15 5.7 16.45 4.6 15.35C3.5 14.3 2.85 13.15 2.55 11.8ZM8.2 2.49998C6.85 2.79998 5.7 3.49998 4.6 4.54998C3.5 5.64998 2.85 6.79998 2.55 8.14998H1.3C1.65 6.49998 2.45 4.99998 3.75 3.69998C5.05 2.39998 6.55 1.59998 8.2 1.24998V2.49998ZM15.45 15.4C14.4 16.45 13.2 17.15 11.85 17.5V18.75C13.5 18.4 15 17.6 16.3 16.3C17.6 15 18.4 13.5 18.75 11.85H17.5C17.2 13.15 16.5 14.3 15.45 15.4ZM8.95 8.89998C9.25 8.59998 9.6 8.44998 10 8.44998C10.4 8.44998 10.8 8.59998 11.05 8.94998C11.35 9.24998 11.5 9.59998 11.5 9.99998C11.5 10.4 11.35 10.75 11.05 11.05C10.75 11.35 10.4 11.5 10 11.5C9.6 11.5 9.25 11.35 8.95 11.05C8.65 10.75 8.5 10.4 8.5 9.99998C8.5 9.54998 8.65 9.19998 8.95 8.89998ZM19.3 9.39998H18.9H17.65H15.35H14.1C13.8 9.39998 13.5 9.64998 13.5 9.99998C13.5 10.3 13.8 10.6 14.1 10.6H15.35H17.65H18.9H19.3C19.65 10.6 19.9 10.3 19.9 9.99998C19.9 9.64998 19.65 9.39998 19.3 9.39998ZM5.95 10.6H4.7H2.35H1.1H0.7C0.4 10.6 0.0999999 10.3 0.0999999 9.99998C0.0999999 9.64998 0.4 9.39998 0.7 9.39998H1.1H2.35H4.7H5.95C6.3 9.39998 6.55 9.64998 6.55 9.99998C6.55 10.3 6.3 10.6 5.95 10.6ZM9.4 14.05C9.4 13.7 9.65 13.45 10 13.45C10.35 13.45 10.65 13.7 10.6 14.05V15.3V17.65V18.9V19.3C10.6 19.65 10.3 19.9 10 19.9C9.65 19.9 9.4 19.65 9.4 19.3V18.9V17.65V15.3V14.05Z" fill="#353537"/>
</svg>
