<svg width="20" height="21" viewBox="0 0 20 21" fill="none" xmlns="http://www.w3.org/2000/svg">
<path d="M16.5661 3.38085C14.2272 1.06479 10.7132 0.365243 7.6523 1.60632C4.59139 2.84739 2.58157 5.78662 2.55401 9.06221L1.05945 12.0209C0.992275 12.1531 1.0401 12.3143 1.16886 12.3896L2.55401 13.2127V17.5816C2.55354 17.6565 2.58326 17.7286 2.63659 17.7817C2.68992 17.8349 2.76245 17.8647 2.8381 17.8647H5.60135V19.9968C5.59291 20.1029 5.64531 20.2048 5.73696 20.2604C5.82861 20.316 5.94403 20.316 6.03568 20.2604C6.12734 20.2048 6.17973 20.1029 6.17129 19.9968V17.5799C6.1713 17.4242 6.04439 17.2977 5.8872 17.2968H3.12395V13.0572C3.12433 12.9583 3.07201 12.8666 2.98632 12.816L1.68939 12.0401L3.10101 9.25619C3.12047 9.21641 3.13072 9.17282 3.13101 9.12862C3.1276 5.587 5.6055 2.51704 9.09443 1.74033C12.5834 0.96362 16.1494 2.68807 17.6766 5.89046C19.2038 9.09284 18.2834 12.916 15.4615 15.0913C15.3926 15.1455 15.3524 15.2279 15.3521 15.315V19.995C15.3521 20.1514 15.4801 20.2781 15.638 20.2781C15.7959 20.2781 15.9238 20.1514 15.9238 19.995V15.4513C17.7336 14.0019 18.837 11.8597 18.9595 9.55777C19.082 7.25586 18.212 5.01066 16.5661 3.38085Z" fill="#353537" stroke="#353537" stroke-width="0.5"/>
<path fill-rule="evenodd" clip-rule="evenodd" d="M6.89779 7.46516C7.26378 5.63794 8.88173 4.32099 10.7626 4.31934C11.9813 4.32154 13.1307 4.88089 13.8771 5.83499C14.6235 6.78908 14.8833 8.03104 14.5811 9.20031C14.5416 9.35184 14.3856 9.44299 14.2326 9.4039C14.0796 9.36481 13.9875 9.21028 14.027 9.05875C14.4804 7.31169 13.4495 5.52412 11.6997 5.02333C9.94997 4.52254 8.1152 5.48993 7.55773 7.20721C7.00026 8.92449 7.92204 10.7696 9.63863 11.3725C9.753 11.4126 9.82939 11.5198 9.8292 11.6399V12.4683H11.6961V11.6399C11.6959 11.5198 11.7723 11.4126 11.8866 11.3725C12.536 11.1452 13.0995 10.7262 13.5012 10.172C13.5451 10.1106 13.612 10.0693 13.6869 10.0572C13.7619 10.045 13.8386 10.0631 13.9 10.1073C14.0272 10.1991 14.0563 10.3751 13.9653 10.5022C13.536 11.0943 12.948 11.5556 12.2678 11.8339V12.4683H12.5907C12.7486 12.4683 12.8765 12.595 12.8765 12.7514V14.8642C12.8746 15.6864 12.2016 16.3522 11.3714 16.3531H10.1521C9.32222 16.3522 8.6497 15.6861 8.64873 14.8642V12.7514C8.64825 12.6761 8.67822 12.6039 8.73193 12.5507C8.78564 12.4975 8.85862 12.4678 8.93458 12.4683H9.25749V11.8339C7.51965 11.1213 6.5318 9.29239 6.89779 7.46516ZM11.3715 15.7887C11.8866 15.7877 12.304 15.3744 12.3049 14.8642V14.8433H9.21876V14.8642C9.21974 15.3744 9.63708 15.7877 10.1522 15.7887H11.3715ZM12.3049 14.2787H9.21876V13.9292H12.3049V14.2787ZM12.3049 13.0344H11.982H9.21876V13.3735H12.3049V13.0344Z" fill="#353537"/>
<path fill-rule="evenodd" clip-rule="evenodd" d="M11.3555 7.63958H12.5906C12.7017 7.64138 12.8017 7.7063 12.8477 7.80638C12.8937 7.90647 12.8775 8.02383 12.8059 8.10793L10.662 10.5231C10.5828 10.6106 10.4578 10.6417 10.3462 10.6017C10.238 10.5573 10.168 10.4521 10.1697 10.3361V8.80871H8.93455C8.82284 8.80748 8.72196 8.74229 8.67582 8.64153C8.62967 8.54077 8.64662 8.42266 8.71927 8.33861L10.8561 5.92522C10.9346 5.83785 11.0593 5.8073 11.1699 5.84832C11.2805 5.88935 11.3542 5.9935 11.3555 6.11046V7.63958ZM10.7432 8.53426V9.5828L11.9696 8.20396H11.0679C10.9919 8.20443 10.919 8.17476 10.8652 8.12156C10.8115 8.06837 10.7816 7.99609 10.782 7.92086V6.87231L9.56275 8.25115H10.4574C10.5333 8.25068 10.6063 8.28036 10.66 8.33355C10.7137 8.38675 10.7437 8.45903 10.7432 8.53426Z" fill="#353537"/>
<path d="M10.7626 2.80933C10.6862 2.80932 10.613 2.83963 10.5592 2.89348C10.5055 2.94733 10.4758 3.02024 10.4768 3.09593V3.70059C10.4768 3.85694 10.6048 3.9837 10.7626 3.9837C10.9205 3.9837 11.0485 3.85694 11.0485 3.70059V3.09593C11.049 3.02038 11.0191 2.94774 10.9655 2.89399C10.9119 2.84024 10.8389 2.80979 10.7626 2.80933Z" fill="#353537"/>
<path d="M7.73472 4.82271L7.30418 4.39631C7.25081 4.34284 7.17805 4.31274 7.10214 4.31274C7.02623 4.31274 6.95347 4.34284 6.9001 4.39631C6.78859 4.50684 6.78859 4.68596 6.9001 4.7965L7.33065 5.22291C7.40207 5.29801 7.50908 5.32868 7.60996 5.30298C7.71084 5.27727 7.78962 5.19925 7.81557 5.09934C7.84153 4.99943 7.81055 4.89345 7.73472 4.82271Z" fill="#353537"/>
<path d="M6.19074 7.94019H5.58198C5.42411 7.94019 5.29613 8.06694 5.29613 8.22329C5.29613 8.37965 5.42411 8.5064 5.58198 8.5064H6.19074C6.34862 8.5064 6.4766 8.37965 6.4766 8.22329C6.4766 8.06694 6.34862 7.94019 6.19074 7.94019V7.94019Z" fill="#353537"/>
<path d="M7.73473 11.2257C7.68137 11.1722 7.60861 11.1421 7.5327 11.1421C7.45678 11.1421 7.38403 11.1722 7.33066 11.2257L6.89658 11.659C6.79063 11.7705 6.79326 11.9451 6.90254 12.0533C7.01182 12.1616 7.18816 12.1642 7.30066 12.0592L7.73473 11.6241C7.78907 11.5718 7.81972 11.4999 7.81972 11.4249C7.81972 11.3498 7.78907 11.278 7.73473 11.2257Z" fill="#353537"/>
<path d="M14.627 11.6591L14.1965 11.2327C14.1431 11.1793 14.0703 11.1492 13.9944 11.1492C13.9185 11.1492 13.8458 11.1793 13.7924 11.2327C13.6809 11.3433 13.6809 11.5224 13.7924 11.6329L14.2229 12.0593C14.2808 12.1159 14.3603 12.1454 14.4415 12.1404C14.5226 12.1354 14.5978 12.0964 14.6482 12.0331C14.7357 11.9205 14.7267 11.7614 14.627 11.6591Z" fill="#353537"/>
<path d="M15.9433 7.94019H15.3328C15.1749 7.94019 15.0469 8.06694 15.0469 8.22329C15.0469 8.37965 15.1749 8.5064 15.3328 8.5064H15.9433C16.1012 8.5064 16.2292 8.37965 16.2292 8.22329C16.2292 8.06694 16.1012 7.94019 15.9433 7.94019V7.94019Z" fill="#353537"/>
<path d="M14.627 4.39631C14.5736 4.34284 14.5008 4.31274 14.4249 4.31274C14.349 4.31274 14.2763 4.34284 14.2229 4.39631L13.7923 4.82271C13.6952 4.92485 13.6869 5.08165 13.7729 5.1932C13.823 5.25636 13.8978 5.29535 13.9787 5.30036C14.0596 5.30537 14.1388 5.27591 14.1964 5.21941L14.627 4.793C14.7371 4.68327 14.7371 4.50604 14.627 4.39631Z" fill="#353537"/>
</svg>
