<svg width="21" height="19" viewBox="0 0 21 19" fill="none" xmlns="http://www.w3.org/2000/svg">
<path d="M19.9844 1.14062C19.9453 1.0625 19.8672 0.984375 19.8281 0.945312C19.6719 0.789062 19.4766 0.75 19.2812 0.789062C19.125 0.828125 18.9297 0.90625 18.8516 1.10156C17.8359 2.85938 16.0391 3.91406 13.9297 3.91406H11.2344C7.64062 3.875 4.75 6.84375 4.75 10.5156C4.75 10.7109 4.75 10.9453 4.78906 11.1797C2.91406 12.7812 1.54688 14.9688 1 17.5078C0.921875 17.8594 1.15625 18.1719 1.46875 18.2109C1.50781 18.25 1.54688 18.25 1.625 18.25C1.89844 18.25 2.17188 18.0547 2.21094 17.7812C2.64062 15.75 3.69531 13.9531 5.0625 12.5859C5.17969 12.8984 5.33594 13.25 5.49219 13.5625C6.66406 15.7109 8.85156 17 11.2344 17C11.4688 17 11.7031 17 11.8984 17C17.1719 16.6094 21 12 21 6.02344C21 4.34375 20.6094 2.58594 19.9844 1.14062ZM11.7812 15.75C11.5859 15.75 11.3906 15.75 11.1953 15.75C9.28125 15.75 7.48438 14.6953 6.58594 12.9766C6.3125 12.5469 6.15625 12.0781 6.07812 11.6875C7.875 10.3203 10.0625 9.5 12.4062 9.5H14.0859C14.3984 9.5 14.7109 9.22656 14.7109 8.91406C14.7109 8.60156 14.3984 8.28906 14.0859 8.28906H12.4062C10.0625 8.28906 7.83594 9.03125 5.96094 10.2422C6.11719 7.46875 8.46094 5.16406 11.2344 5.16406H13.8906C16 5.16406 17.9141 4.30469 19.2031 2.74219C19.5547 3.75781 19.75 4.92969 19.75 6.02344C19.75 11.3359 16.3906 15.3984 11.7812 15.75Z" fill="#353537"/>
</svg>
