<svg width="18" height="17" viewBox="0 0 18 17" fill="none" xmlns="http://www.w3.org/2000/svg">
<path d="M2.8125 2.625H0.5625C0.246094 2.625 0 2.90625 0 3.1875C0 7.23047 3.26953 10.5 7.3125 10.5H9V15.5625C9 15.8789 9.24609 16.125 9.5625 16.125C9.84375 16.125 10.125 15.8789 10.125 15.5625V9.9375C10.125 5.92969 6.82031 2.625 2.8125 2.625ZM7.3125 9.375C4.07812 9.375 1.40625 6.91406 1.125 3.75H2.8125C6.01172 3.75 8.68359 6.24609 8.96484 9.375H7.3125ZM17.4375 0.375H15.1875C12.832 0.375 10.6172 1.53516 9.24609 3.43359C9.03516 3.67969 9.10547 4.03125 9.35156 4.20703C9.59766 4.41797 9.94922 4.34766 10.1602 4.10156C11.3203 2.48438 13.1836 1.5 15.1875 1.5H16.8398C16.5586 4.45312 14.168 6.87891 11.1797 7.125C10.8633 7.16016 10.6523 7.40625 10.6875 7.72266C10.6875 8.03906 10.9336 8.25 11.2148 8.25C11.25 8.25 11.25 8.25 11.2852 8.25C15.0469 7.93359 18 4.73438 18 0.9375C18 0.65625 17.7188 0.375 17.4375 0.375Z" fill="#353537"/>
</svg>
