<svg width="180" height="46" viewBox="0 0 180 46" fill="none" xmlns="http://www.w3.org/2000/svg">
<g clip-path="url(#clip0_1_1002)">
<path d="M8.59883 19.9468C8.31493 19.909 7.95512 19.8713 7.51983 19.8331C7.08497 19.7957 6.71572 19.7768 6.41338 19.7768C5.24045 19.7768 4.34629 19.994 3.7313 20.4292C3.11675 20.8656 2.80926 21.5278 2.80926 22.4174C2.80926 22.9856 2.91304 23.4298 3.1219 23.752C3.32947 24.0743 3.58935 24.3194 3.90199 24.4902C4.2142 24.661 4.559 24.7653 4.93768 24.8026C5.31593 24.8408 5.67574 24.8593 6.01626 24.8593C6.45112 24.8593 6.90013 24.8365 7.36416 24.7884C7.82732 24.7421 8.23902 24.6704 8.59883 24.5752V19.9468ZM8.59883 17.1921C8.59883 16.0754 8.31493 15.2991 7.74755 14.8635C7.17975 14.4284 6.35634 14.2104 5.27819 14.2104C4.61604 14.2104 3.99677 14.2627 3.41953 14.3661C2.84228 14.4704 2.27962 14.6082 1.73069 14.7781C1.3713 14.1537 1.19204 13.4061 1.19204 12.535C1.83533 12.3264 2.54466 12.1655 3.32003 12.0522C4.09583 11.9384 4.8429 11.8818 5.5621 11.8818C7.45379 11.8818 8.89175 12.3127 9.87597 13.174C10.8593 14.0357 11.3512 15.4128 11.3512 17.3058V26.4214C10.6887 26.5728 9.88498 26.7295 8.93892 26.8896C7.99286 27.0509 7.02793 27.1316 6.04456 27.1316C5.11737 27.1316 4.28024 27.0458 3.53274 26.8758C2.78525 26.7054 2.15182 26.4308 1.63205 26.0523C1.11099 25.6738 0.709576 25.1914 0.425244 24.6039C0.141769 24.0173 -0.000183105 23.3074 -0.000183105 22.4745C-0.000183105 21.6599 0.165356 20.9458 0.496434 20.33C0.827512 19.715 1.27695 19.2039 1.84433 18.7962C2.41214 18.3894 3.06486 18.0864 3.8025 17.8877C4.54056 17.689 5.31593 17.5895 6.12948 17.5895C6.73459 17.5895 7.23164 17.6036 7.61975 17.632C8.00701 17.6607 8.33337 17.6938 8.59883 17.7315V17.1921Z" fill="#58595B"/>
<path d="M19.7228 20.06C20.7443 20.06 21.5008 19.7767 21.9931 19.2085C22.4846 18.6399 22.7308 17.9117 22.7308 17.0216C22.7308 16.1131 22.4846 15.3702 21.9931 14.7926C21.5008 14.2154 20.7443 13.9262 19.7228 13.9262C18.7012 13.9262 17.949 14.2154 17.4666 14.7926C16.9841 15.3702 16.7431 16.1131 16.7431 17.0216C16.7431 17.9117 16.9841 18.6399 17.4666 19.2085C17.949 19.7767 18.7012 20.06 19.7228 20.06ZM18.4173 27.1594C17.5661 27.1405 16.9271 27.3679 16.5016 27.8413C16.0762 28.3142 15.8635 28.8828 15.8635 29.5454C15.8635 29.9609 15.9484 30.3025 16.1191 30.5672C16.2889 30.8329 16.5304 31.0453 16.8426 31.2067C17.1548 31.3667 17.5232 31.4809 17.949 31.547C18.3745 31.6135 18.8432 31.647 19.354 31.647C20.8674 31.647 22.0498 31.3955 22.901 30.8938C23.7523 30.3922 24.1782 29.7626 24.1782 29.0056C24.1782 28.4378 23.9981 28.0018 23.6391 27.6992C23.2797 27.3963 22.6171 27.2349 21.6526 27.2169L18.4173 27.1594ZM22.2487 24.9162C23.9316 24.9544 25.1525 25.314 25.909 25.9951C26.6656 26.677 27.0442 27.6143 27.0442 28.8073C27.0442 29.5823 26.8457 30.2789 26.4485 30.8938C26.051 31.5088 25.5025 32.0388 24.8026 32.4847C24.1023 32.9293 23.2741 33.2692 22.3195 33.5073C21.3636 33.7438 20.3279 33.8618 19.212 33.8618C17.2633 33.8618 15.7781 33.5588 14.7566 32.9525C13.7351 32.3469 13.2243 31.3912 13.2243 30.0849C13.2243 29.3081 13.4319 28.6129 13.8487 27.9975C14.2643 27.3821 14.8034 26.8946 15.4659 26.535C15.0873 26.2895 14.7708 25.9818 14.5152 25.6119C14.26 25.2428 14.1326 24.784 14.1326 24.2352C14.1326 23.5348 14.2883 22.9288 14.6005 22.4173C14.9127 21.9062 15.3339 21.4521 15.8635 21.0543C15.2391 20.6192 14.7377 20.0561 14.3591 19.3648C13.9804 18.6738 13.7917 17.8923 13.7917 17.0216C13.7917 16.3023 13.9242 15.6303 14.1892 15.0055C14.4538 14.3806 14.8364 13.8365 15.3381 13.3726C15.839 12.9086 16.4596 12.5443 17.1968 12.2795C17.9349 12.0143 18.7767 11.8817 19.7228 11.8817C20.5741 11.8817 21.3447 12.0049 22.0356 12.2512C22.7261 12.4971 23.317 12.8095 23.8094 13.188C24.1872 12.885 24.6988 12.634 25.3417 12.4353C25.9845 12.2366 26.6939 12.1375 27.4697 12.1375C27.5451 12.4971 27.5833 12.8949 27.5833 13.3296C27.5833 13.5386 27.5743 13.7562 27.5554 13.9832C27.5366 14.2103 27.5074 14.4373 27.4697 14.6647H24.9158C25.1242 14.987 25.2851 15.3368 25.3983 15.7153C25.5119 16.0942 25.5685 16.5294 25.5685 17.0216C25.5685 17.7979 25.427 18.4979 25.1431 19.1236C24.8592 19.748 24.4569 20.2831 23.9372 20.7277C23.4161 21.1728 22.7968 21.5135 22.0781 21.75C21.3589 21.9868 20.5741 22.1053 19.7228 22.1053C18.9465 22.1053 18.2475 22.0195 17.6231 21.8491C17.3576 22.001 17.0977 22.2328 16.8426 22.5452C16.587 22.858 16.4596 23.1945 16.4596 23.5532C16.4596 23.8944 16.5823 24.1918 16.8284 24.4476C17.0737 24.7029 17.6231 24.8411 18.4739 24.8596L22.2487 24.9162Z" fill="#58595B"/>
<path d="M29.2293 9.01359C29.1911 8.78657 29.1675 8.54024 29.1581 8.27502C29.1491 8.01024 29.1443 7.77378 29.1443 7.56564C29.1443 7.35707 29.1491 7.12062 29.1581 6.85583C29.1675 6.59062 29.1911 6.35416 29.2293 6.14559C29.475 6.10782 29.74 6.07907 30.0239 6.06019C30.3078 6.04131 30.5536 6.03186 30.762 6.03186C30.97 6.03186 31.2162 6.04131 31.4996 6.06019C31.7835 6.07907 32.0391 6.10782 32.2656 6.14559C32.3033 6.35416 32.3269 6.59062 32.3368 6.85583C32.3462 7.12062 32.3509 7.35707 32.3509 7.56564C32.3509 7.77378 32.3462 8.01024 32.3368 8.27502C32.3269 8.54024 32.3033 8.78657 32.2656 9.01359C32.0391 9.05178 31.7878 9.08011 31.5138 9.09856C31.2393 9.11787 30.9979 9.12731 30.7903 9.12731C30.563 9.12731 30.3078 9.11787 30.0239 9.09856C29.74 9.08011 29.475 9.05178 29.2293 9.01359ZM29.8537 14.4376H28.0087C27.9706 14.2861 27.9423 14.111 27.9242 13.9119C27.9045 13.7132 27.8955 13.5196 27.8955 13.33C27.8955 13.1407 27.9045 12.9463 27.9242 12.7476C27.9423 12.5489 27.9706 12.3743 28.0087 12.2228H32.6065V26.7906C32.3981 26.8288 32.1665 26.8572 31.9113 26.876C31.6557 26.8945 31.4237 26.9039 31.2162 26.9039C31.0262 26.9039 30.8044 26.8945 30.5488 26.876C30.2932 26.8572 30.0612 26.8288 29.8537 26.7906V14.4376Z" fill="#58595B"/>
<path d="M35.9833 5.97477C36.1913 5.93701 36.4229 5.90911 36.6785 5.89023C36.9341 5.87135 37.1656 5.86148 37.3736 5.86148C37.5821 5.86148 37.8136 5.87135 38.0688 5.89023C38.3244 5.90911 38.556 5.93701 38.7644 5.97477V22.3888C38.7644 22.9188 38.8116 23.3355 38.9059 23.6385C39.0007 23.9419 39.1285 24.1737 39.2893 24.3337C39.4497 24.4951 39.6393 24.5998 39.8571 24.6466C40.0741 24.6942 40.3062 24.7174 40.5519 24.7174C40.7226 24.7174 40.9164 24.7084 41.1343 24.6895C41.3517 24.6702 41.5357 24.6419 41.6875 24.6037C41.8578 25.2667 41.9427 25.9864 41.9427 26.7619C41.6776 26.8571 41.356 26.9185 40.9778 26.9468C40.5991 26.9756 40.2491 26.9897 39.9279 26.9897C39.379 26.9897 38.8682 26.9228 38.3952 26.7906C37.9221 26.6584 37.5061 26.44 37.1468 26.137C36.7874 25.8345 36.5035 25.4276 36.2959 24.9165C36.0871 24.4054 35.9833 23.7716 35.9833 23.0133V5.97477Z" fill="#58595B"/>
<path d="M43.588 9.01359C43.5498 8.78657 43.5262 8.54024 43.5172 8.27502C43.5078 8.01024 43.503 7.77378 43.503 7.56564C43.503 7.35707 43.5078 7.12062 43.5172 6.85583C43.5262 6.59062 43.5498 6.35416 43.588 6.14559C43.8337 6.10782 44.0987 6.07907 44.3831 6.06019C44.667 6.04131 44.9123 6.03186 45.1207 6.03186C45.3287 6.03186 45.5749 6.04131 45.8583 6.06019C46.1422 6.07907 46.3978 6.10782 46.6247 6.14559C46.6624 6.35416 46.6856 6.59062 46.6955 6.85583C46.7053 7.12062 46.7096 7.35707 46.7096 7.56564C46.7096 7.77378 46.7053 8.01024 46.6955 8.27502C46.6856 8.54024 46.6624 8.78657 46.6247 9.01359C46.3978 9.05178 46.1469 9.08011 45.8725 9.09856C45.598 9.11787 45.3566 9.12731 45.149 9.12731C44.9217 9.12731 44.667 9.11787 44.3831 9.09856C44.0987 9.08011 43.8337 9.05178 43.588 9.01359ZM44.2124 14.4376H42.3679C42.3297 14.2861 42.3014 14.111 42.2829 13.9119C42.2636 13.7132 42.2546 13.5196 42.2546 13.33C42.2546 13.1407 42.2636 12.9463 42.2829 12.7476C42.3014 12.5489 42.3297 12.3743 42.3679 12.2228H46.9652V26.7906C46.7568 26.8288 46.5256 26.8572 46.27 26.876C46.0144 26.8945 45.7824 26.9039 45.5749 26.9039C45.3849 26.9039 45.1631 26.8945 44.9075 26.876C44.6524 26.8572 44.4204 26.8288 44.2124 26.7906V14.4376Z" fill="#58595B"/>
<path d="M50.9381 14.4659H48.7247L48.6111 14.0681L53.4923 8.61575H53.7188V12.2223H57.4082C57.4837 12.5442 57.5219 12.9038 57.5219 13.3016C57.5219 13.5098 57.512 13.7085 57.4936 13.8981C57.4743 14.0874 57.446 14.2771 57.4082 14.4659H53.7188V21.1108C53.7188 21.9061 53.7522 22.5408 53.8187 23.0133C53.8843 23.487 53.9984 23.8514 54.1592 24.1072C54.3196 24.3629 54.5375 24.5333 54.8115 24.6178C55.086 24.7032 55.4312 24.7457 55.8472 24.7457C56.1688 24.7457 56.472 24.7217 56.7555 24.6753C57.0398 24.6277 57.2946 24.5754 57.5219 24.5191C57.654 24.8976 57.735 25.2856 57.7633 25.6834C57.7912 26.0808 57.8058 26.431 57.8058 26.734C57.4271 26.8288 57.0295 26.8992 56.614 26.9468C56.1976 26.9936 55.7528 27.0172 55.2798 27.0172C53.9178 27.0172 52.8538 26.6868 52.0878 26.0237C51.3215 25.362 50.9381 24.2634 50.9381 22.73V14.4659Z" fill="#58595B"/>
<path d="M64.3892 26.8191C64.2374 26.8191 64.0813 26.8238 63.9205 26.8332C63.7596 26.8431 63.604 26.8474 63.4522 26.8474C63.263 26.8474 63.0645 26.8431 62.8569 26.8332C62.648 26.8238 62.4782 26.8096 62.3457 26.7907L57.5211 12.2224C57.7672 12.1847 58.0224 12.1611 58.2874 12.1516C58.5525 12.1422 58.7986 12.1375 59.0255 12.1375C59.2708 12.1375 59.5453 12.1422 59.8485 12.1516C60.1508 12.1611 60.4064 12.1847 60.6144 12.2224L64.6444 25.7681L68.8159 12.2224C69.2134 12.1654 69.6766 12.1375 70.2062 12.1375C70.4146 12.1375 70.651 12.1422 70.916 12.1516C71.1806 12.1611 71.4456 12.1847 71.7102 12.2224L66.063 29.7433C65.798 30.52 65.524 31.1732 65.2405 31.7032C64.9566 32.2332 64.6345 32.6585 64.2756 32.9808C63.9157 33.3031 63.5139 33.5305 63.0692 33.6636C62.6249 33.7953 62.109 33.8618 61.5223 33.8618C61.0874 33.8618 60.6573 33.8279 60.2314 33.7627C59.8056 33.6957 59.432 33.6159 59.1104 33.5206C59.1104 33.0859 59.1481 32.6967 59.224 32.3568C59.2995 32.0156 59.4127 31.6744 59.565 31.3341C59.7348 31.3912 59.9664 31.4526 60.2602 31.5191C60.5531 31.5848 60.87 31.6182 61.2105 31.6182C61.4563 31.6182 61.6878 31.5946 61.9057 31.547C62.1231 31.4998 62.3264 31.4058 62.516 31.2633C62.7047 31.1213 62.8801 30.9174 63.0409 30.6526C63.2013 30.387 63.3578 30.0278 63.5092 29.5738L64.3892 26.8191Z" fill="#58595B"/>
<path d="M73.5264 5.91821C73.6404 5.89932 73.7961 5.88559 73.9947 5.87572C74.1937 5.86628 74.3498 5.86156 74.4634 5.86156C74.5573 5.86156 74.7087 5.86628 74.9172 5.87572C75.1251 5.88559 75.286 5.89932 75.3992 5.91821V14.8917C75.5883 14.551 75.8345 14.2059 76.1373 13.8553C76.4396 13.5056 76.79 13.188 77.1875 12.9039C77.5846 12.6198 78.0337 12.3928 78.5354 12.2224C79.0363 12.052 79.59 11.9671 80.1955 11.9671C81.8599 11.9671 83.0852 12.464 83.8704 13.4575C84.6552 14.4518 85.048 15.8483 85.048 17.6464V26.7907C84.9348 26.8096 84.7783 26.8237 84.5797 26.8332C84.3812 26.8431 84.2251 26.8478 84.1119 26.8478C84.0166 26.8478 83.8653 26.8431 83.6573 26.8332C83.4493 26.8237 83.2889 26.8096 83.1752 26.7907V18.2142C83.1752 16.6057 82.9102 15.4505 82.3806 14.7497C81.8505 14.0497 81.0846 13.6995 80.0819 13.6995C79.4193 13.6995 78.8 13.8227 78.2232 14.0682C77.6455 14.3145 77.1489 14.6788 76.7334 15.1616C76.3169 15.6444 75.9906 16.2504 75.7543 16.9791C75.5176 17.7082 75.3992 18.5459 75.3992 19.4926V26.7907C75.286 26.8096 75.1294 26.8237 74.9313 26.8332C74.7327 26.8431 74.5762 26.8478 74.4634 26.8478C74.3682 26.8478 74.2168 26.8431 74.0088 26.8332C73.8004 26.8237 73.6404 26.8096 73.5264 26.7907V5.91821Z" fill="#39B54A"/>
<path d="M97.1939 18.2713C97.1939 17.6846 97.1185 17.107 96.9662 16.5392C96.8152 15.9715 96.5789 15.4737 96.2569 15.0479C95.9348 14.6218 95.5197 14.2768 95.0085 14.0115C94.4981 13.7463 93.8823 13.6137 93.164 13.6137C91.8396 13.6137 90.8082 14.0214 90.071 14.8351C89.333 15.6496 88.8882 16.7946 88.7369 18.2713H97.1939ZM88.6803 19.8334C88.6803 21.7641 89.1245 23.1837 90.0136 24.0927C90.9034 25.0016 92.2368 25.4561 94.0157 25.4561C94.7344 25.4561 95.4013 25.3943 96.0159 25.2715C96.6308 25.1479 97.2312 24.9832 97.8179 24.7742C97.9123 24.9832 97.9886 25.2385 98.0448 25.541C98.1018 25.844 98.14 26.1187 98.1589 26.3646C97.6104 26.6113 96.9662 26.7997 96.2286 26.9328C95.4909 27.065 94.6864 27.1315 93.8167 27.1315C92.5683 27.1315 91.4944 26.9469 90.5955 26.5774C89.6975 26.2084 88.959 25.6925 88.3822 25.0299C87.805 24.3673 87.3791 23.5773 87.1055 22.6589C86.8306 21.7409 86.6942 20.732 86.6942 19.6347C86.6942 18.5742 86.8216 17.5803 87.0768 16.6525C87.3324 15.7247 87.7196 14.911 88.2407 14.2102C88.7604 13.5099 89.4278 12.961 90.2413 12.5632C91.0544 12.1653 92.0288 11.9671 93.164 11.9671C94.1096 11.9671 94.9514 12.128 95.6891 12.4499C96.4276 12.7722 97.0468 13.2211 97.5482 13.7983C98.0495 14.3763 98.4278 15.0672 98.6834 15.8715C98.9385 16.6761 99.0663 17.5516 99.0663 18.4979C99.0663 18.6691 99.062 18.8871 99.0526 19.1515C99.0427 19.4171 99.0282 19.6441 99.0097 19.8334H88.6803Z" fill="#39B54A"/>
<path d="M108.885 19.7482C108.563 19.71 108.162 19.668 107.679 19.6203C107.196 19.5736 106.738 19.5491 106.303 19.5491C104.884 19.5491 103.787 19.8147 103.011 20.3443C102.235 20.8743 101.848 21.6326 101.848 22.6166C101.848 23.2415 101.965 23.7427 102.202 24.1212C102.439 24.4997 102.747 24.7886 103.124 24.9873C103.503 25.1864 103.92 25.3186 104.374 25.3851C104.827 25.4516 105.282 25.4842 105.736 25.4842C106.322 25.4842 106.871 25.4563 107.381 25.3992C107.892 25.3422 108.394 25.2666 108.885 25.1722V19.7482ZM108.885 17.2201C108.885 15.9713 108.592 15.0581 108.006 14.4804C107.419 13.9028 106.549 13.614 105.395 13.614C104.638 13.614 103.947 13.6663 103.323 13.7702C102.699 13.874 102.14 14.0019 101.649 14.1538C101.554 13.983 101.474 13.7371 101.408 13.4153C101.342 13.0934 101.309 12.7904 101.309 12.5063C101.8 12.3548 102.406 12.2278 103.124 12.1231C103.843 12.0193 104.582 11.9669 105.338 11.9669C107.173 11.9669 108.535 12.3699 109.425 13.1741C110.314 13.9787 110.759 15.2426 110.759 16.9652V26.5348C110.096 26.6674 109.292 26.8 108.346 26.9326C107.401 27.0652 106.502 27.1317 105.651 27.1317C103.891 27.1317 102.505 26.782 101.493 26.0812C100.481 25.3808 99.9753 24.2444 99.9753 22.6729C99.9753 21.9158 100.121 21.2391 100.414 20.6426C100.707 20.0456 101.114 19.5448 101.635 19.1371C102.156 18.7307 102.779 18.4226 103.508 18.2144C104.236 18.0059 105.035 17.902 105.906 17.902C106.587 17.902 107.173 17.9261 107.665 17.9733C108.157 18.0205 108.563 18.0634 108.885 18.1011V17.2201Z" fill="#39B54A"/>
<path d="M113.766 5.91813C113.88 5.89924 114.035 5.88551 114.234 5.87564C114.433 5.8662 114.589 5.86148 114.702 5.86148C114.797 5.86148 114.948 5.8662 115.156 5.87564C115.364 5.88551 115.526 5.89924 115.639 5.91813V23.4394C115.639 23.9325 115.695 24.3157 115.81 24.5895C115.923 24.8637 116.065 25.0633 116.235 25.186C116.405 25.3096 116.595 25.3847 116.802 25.4135C117.01 25.4418 117.2 25.456 117.37 25.456C117.578 25.456 117.796 25.4418 118.022 25.4135C118.25 25.3847 118.439 25.3521 118.59 25.3139C118.685 25.5414 118.75 25.7873 118.788 26.0521C118.827 26.3173 118.855 26.5632 118.874 26.7906C118.609 26.8846 118.311 26.9515 117.98 26.9897C117.649 27.0271 117.342 27.0455 117.058 27.0455C116.66 27.0455 116.263 27.0039 115.866 26.9185C115.469 26.8331 115.114 26.6726 114.801 26.4357C114.49 26.1993 114.239 25.8778 114.05 25.4697C113.86 25.0633 113.766 24.5281 113.766 23.8655V5.91813Z" fill="#39B54A"/>
<path d="M120.633 13.8981H118.164C118.145 13.8032 118.131 13.6805 118.121 13.529C118.112 13.3775 118.108 13.2264 118.108 13.0741C118.108 12.923 118.112 12.781 118.121 12.6484C118.131 12.5162 118.145 12.4029 118.164 12.3076H120.633V9.58126L122.392 7.84922H122.506V12.3076H126.423C126.44 12.4029 126.455 12.5162 126.465 12.6484C126.475 12.781 126.479 12.923 126.479 13.0741C126.479 13.2264 126.475 13.3775 126.465 13.529C126.455 13.6805 126.44 13.8032 126.423 13.8981H122.506V23.326C122.506 23.7998 122.568 24.1736 122.69 24.4474C122.814 24.722 122.974 24.9358 123.174 25.0864C123.372 25.2387 123.599 25.3379 123.854 25.3851C124.109 25.4323 124.369 25.4563 124.634 25.4563C125.297 25.4563 125.873 25.3705 126.366 25.2005C126.498 25.6924 126.593 26.2228 126.65 26.7905C125.968 26.9983 125.174 27.1034 124.266 27.1034C123.187 27.1034 122.312 26.8141 121.641 26.2374C120.969 25.6593 120.633 24.7173 120.633 23.411V13.8981Z" fill="#39B54A"/>
<path d="M127.898 5.91821C128.012 5.89932 128.167 5.88559 128.366 5.87572C128.566 5.86628 128.722 5.86156 128.834 5.86156C128.929 5.86156 129.08 5.86628 129.289 5.87572C129.497 5.88559 129.657 5.89932 129.771 5.91821V14.8917C129.96 14.551 130.206 14.2059 130.509 13.8553C130.811 13.5056 131.161 13.188 131.559 12.9039C131.956 12.6198 132.406 12.3928 132.907 12.2224C133.408 12.052 133.961 11.9671 134.567 11.9671C136.231 11.9671 137.456 12.464 138.241 13.4575C139.027 14.4518 139.419 15.8483 139.419 17.6464V26.7907C139.307 26.8096 139.15 26.8237 138.951 26.8332C138.753 26.8431 138.597 26.8478 138.483 26.8478C138.388 26.8478 138.237 26.8431 138.029 26.8332C137.82 26.8237 137.66 26.8096 137.547 26.7907V18.2142C137.547 16.6057 137.281 15.4505 136.752 14.7497C136.222 14.0497 135.456 13.6995 134.453 13.6995C133.791 13.6995 133.172 13.8227 132.594 14.0682C132.017 14.3145 131.52 14.6788 131.105 15.1616C130.688 15.6444 130.362 16.2504 130.126 16.9791C129.889 17.7082 129.771 18.5459 129.771 19.4926V26.7907C129.657 26.8096 129.501 26.8237 129.303 26.8332C129.105 26.8431 128.948 26.8478 128.834 26.8478C128.739 26.8478 128.588 26.8431 128.38 26.8332C128.172 26.8237 128.012 26.8096 127.898 26.7907V5.91821Z" fill="#39B54A"/>
<path d="M161.384 26.913C160.165 26.5568 159.06 25.9663 158.104 25.1805L157.902 25.0981L151.404 31.0796C154.029 33.609 157.41 35.3423 161.177 35.9281L161.965 31.8482C161.108 31.7203 160.271 31.5353 159.472 31.2633L161.384 26.913Z" fill="#F7931D"/>
<path d="M169.981 10.9476C170.368 11.2776 170.723 11.6338 171.052 12.0222L177.806 6.2742C174.92 2.87363 170.808 0.556227 166.149 -0.000378609L165.826 1.94495C168.707 2.27797 171.366 3.32981 173.586 4.97045L169.981 10.9476Z" fill="#F7931D"/>
<path d="M176.192 28.6547L174.329 27.2935C174.017 27.6419 173.715 27.9973 173.371 28.3127L176.027 31.5601C177.283 30.4404 178.382 29.1538 179.288 27.7273L177.556 26.8454C177.143 27.4806 176.687 28.0852 176.192 28.6547Z" fill="#F7931D"/>
<path d="M147.948 20.2728C147.888 19.8492 147.878 19.4119 147.847 18.9802L145.898 19.1944C145.979 20.4629 146.188 21.6954 146.517 22.8799L154.797 19.7527V19.239C154.777 19.0939 154.765 18.9476 154.752 18.8004L147.948 20.2728Z" fill="#F7931D"/>
<path d="M167.326 6.42067L166.957 9.2303C168.08 9.61224 169.097 10.1955 169.981 10.9478L173.586 4.97057C171.366 3.32994 168.707 2.2781 165.826 1.94508C165.216 1.8747 164.609 1.79359 163.98 1.79359C162.71 1.79359 161.48 1.95452 160.294 2.23089L161.343 6.23656C162.191 6.04559 163.073 5.94045 163.98 5.94045C165.142 5.94045 166.263 6.11383 167.326 6.42067Z" fill="#EE2B7B"/>
<path d="M172.603 21.484C172.308 22.2183 171.912 22.8933 171.449 23.5212L175.182 26.3866C174.932 26.7201 174.606 26.9836 174.329 27.2934L176.192 28.6547C176.687 28.0852 177.143 27.4805 177.556 26.8454C178.805 24.9249 179.656 22.7251 180 20.3554L175.894 19.5039C175.755 20.618 175.521 21.7029 175.099 22.7015L172.603 21.484Z" fill="#EE2B7B"/>
<path d="M154.752 18.8007C154.73 18.5367 154.673 18.2823 154.673 18.0127C154.673 17.6124 154.742 17.2317 154.791 16.8446L147.885 16.1601C147.816 16.7691 147.772 17.3853 147.772 18.0127C147.772 18.3419 147.824 18.6573 147.847 18.9805C147.878 19.4122 147.888 19.8491 147.948 20.2731L154.752 18.8007Z" fill="#EE2B7B"/>
<path d="M154.796 10.2123C156.027 8.76259 157.612 7.64895 159.391 6.90609L158.362 5.18821C154.573 6.85245 151.671 10.1449 150.525 14.1819L154.976 15.7676C155.321 14.3836 155.978 13.1378 156.863 12.0765L154.796 10.2123Z" fill="#00AEEF"/>
<path d="M175.182 26.3865L171.449 23.5211C169.754 25.8179 167.052 27.3255 163.98 27.3255C163.073 27.3255 162.213 27.1551 161.384 26.9131L159.472 31.2629C160.271 31.5355 161.108 31.7204 161.964 31.8483C162.624 31.9466 163.292 32.0195 163.98 32.0195C167.616 32.0195 170.885 30.59 173.37 28.3125C173.715 27.9971 174.017 27.6418 174.329 27.2933C174.606 26.9839 174.932 26.72 175.182 26.3865Z" fill="#00AEEF"/>
<path d="M156.863 12.0763C158.57 10.0288 161.107 8.69932 163.98 8.69932C165.028 8.69932 166.018 8.91089 166.957 9.23018L167.326 6.42055C166.263 6.11371 165.142 5.94033 163.98 5.94033C163.073 5.94033 162.191 6.04547 161.343 6.23687C160.661 6.39008 160.023 6.64242 159.391 6.90591C157.612 7.6492 156.027 8.76241 154.797 10.2121L156.863 12.0763Z" fill="#39B54A"/>
<path d="M172.603 21.484L175.099 22.7015C175.521 21.7029 175.755 20.618 175.894 19.504C175.955 19.0096 176.044 18.5238 176.044 18.0127C176.044 16.015 175.551 14.1357 174.693 12.4762L172.246 13.8177C172.89 15.0837 173.287 16.4952 173.287 18.0127C173.287 19.2417 173.036 20.4095 172.603 21.484Z" fill="#39B54A"/>
<path d="M153.013 23.0208C153.502 24.0906 154.141 25.0742 154.905 25.9489L157.105 24.2417C156.403 23.4658 155.808 22.5925 155.397 21.6127L153.013 23.0208Z" fill="#39B54A"/>
<path d="M64.8935 40.9759C64.9402 41.1716 64.9801 41.4163 65.0586 41.6476C65.2447 42.2003 65.8288 42.4608 66.379 42.2891C67.0223 42.0883 67.4143 41.6141 67.7008 41.0596C68.1519 40.1855 68.2171 39.2023 68.3895 38.2521C68.4011 38.1916 68.2969 38.0577 68.2265 38.0414C67.6116 37.8989 67.0013 37.8719 66.4271 38.2071C65.3866 38.8143 65.0243 39.7966 64.8935 40.9759ZM67.7364 42.0849C67.3864 42.3715 67.0819 42.6749 66.7277 42.9002C65.975 43.38 64.8103 43.2075 64.3317 42.5569C63.9114 41.9853 63.7368 41.333 63.8535 40.6249C63.9877 39.8078 64.2669 39.0491 64.8184 38.4126C65.6684 37.4325 66.7388 36.9668 68.0323 37.1016C68.4783 37.1479 68.9123 37.3084 69.3536 37.4084C69.5346 37.4492 69.5792 37.5415 69.5457 37.72C69.3982 38.4998 69.2648 39.283 69.1198 40.0636C68.9693 40.8734 68.8364 41.6875 68.6468 42.4883C68.5049 43.0874 68.347 43.6972 68.0846 44.2495C67.6056 45.2584 66.7058 45.6794 65.6315 45.7609C65.017 45.8077 64.4196 45.7086 63.8389 45.497C63.6185 45.4168 63.5469 45.2859 63.6335 45.0683C63.6639 44.9915 63.703 44.9172 63.7231 44.8379C63.7879 44.5838 63.8771 44.5164 64.158 44.6456C64.7721 44.9271 65.4385 45.0198 66.0883 44.807C66.3855 44.7095 66.6659 44.4902 66.8919 44.2649C67.4945 43.6641 67.5361 42.8419 67.7364 42.0849Z" fill="#858282"/>
<path d="M123.09 37.9271C122.922 37.9584 122.668 37.9704 122.441 38.0541C121.102 38.5493 120.272 40.3483 120.751 41.6868C120.921 42.1628 121.461 42.4512 121.95 42.322C122.808 42.0963 123.273 41.4482 123.545 40.6844C123.782 40.0192 123.903 39.3102 124.042 38.6137C124.148 38.079 124.125 38.073 123.6 37.9867C123.458 37.9631 123.313 37.9528 123.09 37.9271ZM123.346 42.0649C123.298 42.125 123.249 42.1838 123.205 42.2456C122.61 43.0657 121.202 43.5558 120.242 42.782C119.677 42.3254 119.478 41.662 119.512 40.9805C119.56 40.017 119.867 39.1227 120.529 38.379C121.501 37.2876 122.707 36.898 124.129 37.1525C124.442 37.2083 124.751 37.3035 125.049 37.4155C125.133 37.4469 125.23 37.6121 125.217 37.7009C125.139 38.2524 125.034 38.8 124.933 39.348C124.779 40.1797 124.643 41.0148 124.46 41.8401C124.3 42.5623 124.132 43.2884 123.885 43.9836C123.491 45.0964 122.605 45.6067 121.478 45.7487C120.787 45.8359 120.121 45.6972 119.468 45.4827C119.273 45.4187 119.177 45.2973 119.304 45.0806C119.4 44.9175 119.436 44.648 119.567 44.5956C119.702 44.542 119.914 44.7106 120.099 44.7553C120.747 44.9119 121.408 45.0454 122.028 44.6965C122.297 44.5454 122.548 44.3205 122.738 44.0755C123.186 43.4961 123.264 42.782 123.346 42.0649Z" fill="#858282"/>
<path d="M76.6502 39.4005C76.6163 39.207 76.6013 38.9447 76.5203 38.7044C76.3933 38.3272 76.1545 38.0517 75.7256 37.977C75.078 37.8637 74.5818 38.1603 74.1993 38.6074C73.4402 39.4958 73.2271 40.5884 73.1983 41.7218C73.1906 42.0372 73.3669 42.2706 73.6731 42.3809C74.1495 42.5526 74.6239 42.4972 75.0441 42.25C76.0957 41.6299 76.5181 40.6317 76.6502 39.4005ZM74.5827 34.3554C74.3117 35.6781 74.0591 36.9102 73.8082 38.1337C74.1718 37.8543 74.4901 37.5453 74.8649 37.3372C75.4957 36.987 76.1733 36.9732 76.8179 37.3178C77.4359 37.6491 77.6366 38.259 77.7043 38.8963C77.8905 40.6382 76.8076 42.4457 75.1874 43.0869C74.4596 43.3748 73.6825 43.4298 72.9487 43.1289C72.4041 42.9049 72.0833 42.4213 72.1219 41.8239C72.1648 41.1587 72.2857 40.4953 72.4122 39.8387C72.6919 38.3903 72.9959 36.9479 73.2884 35.503C73.3523 35.1897 73.4029 34.8738 73.4741 34.5627C73.4912 34.4872 73.5607 34.3674 73.6122 34.3649C73.9252 34.346 74.2409 34.3554 74.5827 34.3554Z" fill="#858282"/>
<path d="M50.9309 39.388C50.9627 38.8267 50.7993 38.5422 50.6041 38.3109C50.198 37.8281 49.4158 37.8319 48.8411 38.2881C47.8041 39.1116 47.5918 40.2948 47.4919 41.4994C47.4349 42.1908 47.8299 42.5195 48.5328 42.4732C48.7639 42.4581 49.0101 42.4032 49.2155 42.2998C50.4094 41.6986 50.7945 40.6128 50.9309 39.388ZM48.1193 38.1328C48.5645 37.6332 49.0607 37.2994 49.6889 37.1466C50.9043 36.8513 51.9216 37.6281 51.9859 38.8902C52.0657 40.4519 51.5167 41.735 50.2675 42.6629C49.4055 43.3031 48.4144 43.48 47.3611 43.162C46.7135 42.9667 46.2911 42.2916 46.4112 41.5496C46.5707 40.5622 46.7594 39.579 46.9498 38.5967C47.1707 37.4521 47.4066 36.3106 47.6377 35.1682C47.6643 35.0365 47.6939 34.9051 47.7321 34.7768C47.7745 34.6356 47.8136 34.3863 47.8796 34.3777C48.1712 34.3399 48.4731 34.3666 48.7699 34.3884C48.7905 34.3897 48.8257 34.5481 48.8107 34.624C48.5928 35.7055 48.3668 36.7852 48.1455 37.8654C48.1279 37.9525 48.1279 38.0435 48.1193 38.1328Z" fill="#858282"/>
<path d="M41.1481 41.087C41.1481 41.1488 41.1446 41.211 41.1485 41.2728C41.2107 42.2967 41.9209 42.7031 42.749 42.2925C43.3361 42.0011 43.6736 41.4839 43.9545 40.9265C44.3889 40.0639 44.4412 39.1013 44.6372 38.1774C44.6497 38.1173 44.506 37.9559 44.4412 37.9593C44.0038 37.9808 43.5385 37.9499 43.138 38.092C42.0028 38.4949 41.1759 39.7987 41.1481 41.087ZM44.9786 43.146H44.0034C44.0398 42.6959 44.075 42.265 44.1097 41.8337C44.081 41.8251 44.0518 41.8161 44.0227 41.8075C43.9747 41.8895 43.9266 41.9723 43.8782 42.0538C43.415 42.828 42.7348 43.2666 41.8342 43.2992C40.9525 43.3314 40.2359 42.701 40.1089 41.8024C39.8297 39.8291 41.2124 37.3972 43.6161 37.1504C44.2723 37.0835 44.9473 37.1946 45.6133 37.2332C45.8342 37.2457 45.8376 37.4122 45.8076 37.5765C45.7064 38.1353 45.615 38.6962 45.4945 39.2507C45.2269 40.4832 44.9859 41.7183 45.0013 42.9881C45.0018 43.037 44.9872 43.0864 44.9786 43.146Z" fill="#858282"/>
<path d="M114.533 41.105C114.533 41.1673 114.529 41.2291 114.534 41.2908C114.568 41.7303 114.683 42.1449 115.111 42.35C115.54 42.5568 115.954 42.4405 116.33 42.171C116.749 41.8706 117.061 41.478 117.294 41.0231C117.754 40.1249 117.826 39.1254 118.021 38.1594C118.032 38.104 117.897 37.9555 117.834 37.9581C117.407 37.9761 116.951 37.9383 116.559 38.0765C115.385 38.4907 114.55 39.7957 114.533 41.105ZM118.361 43.1375H117.38C117.411 42.6924 117.44 42.2757 117.476 41.7788C117.279 42.0436 117.137 42.2504 116.979 42.4435C116.4 43.1491 115.407 43.4744 114.652 43.2186C113.934 42.9753 113.562 42.4354 113.483 41.7239C113.251 39.6627 114.695 37.3581 117.044 37.1436C117.682 37.0852 118.335 37.1925 118.981 37.2298C119.224 37.2435 119.22 37.4225 119.189 37.5933C119.092 38.1422 118.998 38.6919 118.881 39.2365C118.614 40.4802 118.354 41.7234 118.382 43.0062C118.383 43.0452 118.369 43.0847 118.361 43.1375Z" fill="#858282"/>
<path d="M142.56 37.202C142.091 38.1539 141.681 39.0087 141.25 39.8529C140.612 41.1017 139.989 42.3604 139.301 43.5822C138.697 44.6585 137.85 45.5078 136.662 45.9537C136.624 45.9678 136.584 45.9751 136.494 46C136.413 45.7421 136.314 45.4949 136.27 45.2387C136.257 45.1687 136.391 45.0297 136.485 44.9915C137.337 44.6495 137.949 44.0414 138.391 43.2577C138.482 43.0968 138.513 42.8603 138.477 42.6771C138.298 41.7669 138.085 40.8631 137.89 39.9559C137.697 39.0602 137.511 38.1633 137.31 37.2067C137.647 37.2067 137.972 37.1973 138.295 37.2158C138.346 37.2188 138.417 37.3415 138.432 37.4179C138.555 38.0354 138.667 38.6551 138.78 39.274C138.931 40.1056 139.08 40.9373 139.232 41.769C139.237 41.7956 139.263 41.8184 139.311 41.8888C139.436 41.615 139.549 41.3708 139.66 41.1262C140.22 39.8954 140.785 38.668 141.333 37.4325C141.416 37.2437 141.519 37.1904 141.706 37.199C141.967 37.211 142.229 37.202 142.56 37.202Z" fill="#858282"/>
<path d="M57.4727 43.1639C57.5829 42.5717 57.6867 42.0155 57.7896 41.4594C58.0379 40.1204 58.2922 38.7823 58.5264 37.4408C58.562 37.2357 58.6289 37.1833 58.8214 37.1996C59.0337 37.2168 59.2481 37.2031 59.5123 37.2031C59.4596 37.5889 59.4128 37.93 59.3639 38.2871C59.6384 38.0335 59.876 37.7657 60.1594 37.5614C60.7556 37.1322 61.4139 36.955 62.1463 37.1859C62.6481 37.3442 63.0667 37.7785 63.0701 38.3073C63.074 38.9115 63.0225 39.5222 62.9286 40.1191C62.7823 41.0457 62.5726 41.9619 62.4067 42.8858C62.3681 43.1008 62.2969 43.1892 62.0691 43.1691C61.8191 43.1472 61.5652 43.1639 61.2869 43.1639C61.4392 42.382 61.5854 41.6666 61.7162 40.9478C61.8303 40.3195 61.9486 39.6908 62.0233 39.0574C62.0691 38.6699 62.007 38.2815 61.606 38.0678C61.1866 37.8446 60.7646 37.9335 60.3996 38.1669C59.7679 38.5712 59.3412 39.1647 59.1735 39.8921C58.9471 40.877 58.7777 41.8748 58.5928 42.8687C58.5555 43.0682 58.4963 43.1871 58.26 43.1686C58.0062 43.1481 57.7497 43.1639 57.4727 43.1639Z" fill="#858282"/>
<path d="M33.7084 43.164C34.0832 41.156 34.4482 39.2017 34.8174 37.2212H35.7283C35.6858 37.5606 35.6455 37.8812 35.5949 38.2838C35.7008 38.185 35.7656 38.1361 35.8166 38.0752C36.2944 37.4997 36.8991 37.1547 37.6474 37.0911C38.5459 37.0143 39.368 37.5907 39.3174 38.5245C39.2754 39.2927 39.139 40.0579 39.0181 40.82C38.9096 41.5028 38.7547 42.1778 38.642 42.8602C38.6016 43.1031 38.5094 43.1936 38.2607 43.1687C38.0218 43.1443 37.7782 43.1632 37.5209 43.1632C37.7637 41.886 38.006 40.6745 38.217 39.4579C38.268 39.1609 38.2787 38.8279 38.1985 38.5421C37.9897 37.8035 37.1049 37.8259 36.5736 38.1975C35.9693 38.6202 35.5537 39.2013 35.3942 39.9218C35.1755 40.9089 34.9979 41.9049 34.8153 42.8992C34.7784 43.1009 34.705 43.1842 34.4928 43.1683C34.238 43.1499 33.9811 43.164 33.7084 43.164Z" fill="#858282"/>
<path d="M96.0652 43.138H95.0055C95.1153 42.6045 95.2353 42.1063 95.3185 41.6025C95.4656 40.7081 95.6127 39.8133 95.7174 38.9134C95.8242 37.9963 94.933 37.7826 94.3232 38.0659C93.498 38.4482 93.0636 39.1632 92.8599 39.9979C92.621 40.9793 92.4713 41.9827 92.2749 42.9749C92.2612 43.0448 92.1814 43.1525 92.127 43.156C91.8315 43.1736 91.5347 43.1646 91.1946 43.1646C91.2714 42.7517 91.3417 42.3805 91.4104 42.0089C91.6934 40.4669 91.9756 38.9246 92.2616 37.3826C92.2728 37.3217 92.3204 37.22 92.3551 37.2183C92.6116 37.2046 92.8702 37.2046 93.1266 37.2209C93.158 37.223 93.2086 37.3505 93.2026 37.4153C93.1781 37.6882 93.1352 37.9594 93.0872 38.3195C93.2879 38.1002 93.4161 37.9311 93.5727 37.7942C94.2014 37.2457 94.9068 36.9509 95.7615 37.1531C96.6103 37.3535 96.9259 38.1534 96.8161 38.9447C96.6617 40.058 96.4288 41.1613 96.2286 42.2685C96.1775 42.5517 96.1222 42.8345 96.0652 43.138Z" fill="#858282"/>
<path d="M81.9979 43.1045C82.0425 42.7895 82.088 42.4689 82.1467 42.0574C82.0134 42.208 81.9293 42.3007 81.8487 42.3969C81.31 43.0393 80.2207 43.5697 79.2661 43.1556C78.9192 43.0058 78.6687 42.75 78.5894 42.399C78.4997 42.0033 78.4157 41.575 78.4744 41.1824C78.6623 39.9172 78.9157 38.6624 79.1482 37.405C79.1598 37.3415 79.2069 37.2359 79.2421 37.2342C79.5397 37.2179 79.8382 37.2157 80.1354 37.2273C80.162 37.2286 80.2147 37.3608 80.2027 37.4222C80.026 38.3444 79.8309 39.2636 79.6611 40.1872C79.5843 40.6017 79.5251 41.0236 79.508 41.4446C79.4711 42.3479 80.2478 42.587 80.8983 42.3157C81.6943 41.984 82.1253 41.3077 82.3174 40.5073C82.5585 39.5044 82.7326 38.4852 82.9208 37.4702C82.9586 37.2672 83.0315 37.1853 83.2399 37.1986C83.4848 37.214 83.7305 37.2024 84.023 37.2024C83.9694 37.5003 83.9252 37.7599 83.8763 38.0178C83.5834 39.5593 83.2862 41.1 82.9989 42.6423C82.9028 43.1577 82.9148 43.1603 82.3818 43.1625C82.2887 43.1629 82.1956 43.1637 82.103 43.1573C82.076 43.1556 82.0498 43.1311 81.9979 43.1045Z" fill="#858282"/>
<path d="M98.769 39.6114C99.3102 39.7521 100.635 39.5929 101.119 39.329C101.509 39.1165 101.671 38.7827 101.565 38.4093C101.478 38.1012 101.094 37.8802 100.692 37.9059C99.8038 37.9639 99.0473 38.6346 98.769 39.6114ZM101.67 42.109C101.67 42.1086 101.682 42.1146 101.684 42.1232C101.903 42.8652 101.907 42.8772 101.164 43.0969C100.433 43.3132 99.6893 43.4162 98.9448 43.148C98.2599 42.9012 97.8577 42.406 97.6788 41.7035C97.3486 40.4053 97.7119 39.2633 98.5121 38.2604C99.2279 37.363 100.177 36.9167 101.35 37.1347C102.07 37.2686 102.541 37.7703 102.626 38.4308C102.706 39.0539 102.324 39.6736 101.685 39.9972C100.816 40.4375 99.8767 40.4718 98.9375 40.4834C98.6528 40.4872 98.591 40.5688 98.5992 40.8366C98.6356 42.0322 99.3235 42.6261 100.495 42.424C100.884 42.3562 101.261 42.2206 101.67 42.109Z" fill="#858282"/>
<path d="M29.5974 39.6604C29.8727 39.6604 30.0863 39.672 30.2985 39.6583C30.8946 39.6192 31.4942 39.5883 32.0401 39.3004C32.3425 39.1411 32.5123 38.8493 32.4754 38.5463C32.4355 38.2168 32.2451 38.0069 31.866 37.9468C31.6576 37.9134 31.429 37.9121 31.2244 37.9593C30.3526 38.161 29.9563 38.839 29.5974 39.6604ZM29.5335 40.5346C29.3289 41.6899 29.9452 42.5743 31.1648 42.455C31.6258 42.41 32.0749 42.243 32.5792 42.119C32.6144 42.2838 32.668 42.4988 32.7001 42.7172C32.7083 42.7722 32.6611 42.8747 32.6148 42.8928C31.5825 43.291 30.5353 43.5464 29.4828 42.9825C28.789 42.6108 28.5308 41.9495 28.4639 41.2101C28.3545 39.9883 28.7431 38.9073 29.5789 38.0374C30.3796 37.2027 31.3844 36.8409 32.5376 37.2168C33.0758 37.3919 33.397 37.8052 33.4807 38.3807C33.566 38.9691 33.3726 39.4836 32.885 39.781C32.448 40.0479 31.9402 40.2415 31.4384 40.3466C30.8282 40.4741 30.1913 40.4754 29.5335 40.5346Z" fill="#858282"/>
<path d="M134.528 38.0319C134.288 38.0319 134.106 38.028 133.923 38.0327C133.747 38.0374 133.669 37.9679 133.718 37.7881C133.726 37.7576 133.736 37.7289 133.744 37.6988C133.867 37.2075 133.867 37.1903 134.376 37.2045C134.634 37.2118 134.744 37.1397 134.769 36.8766C134.797 36.6006 134.861 36.326 134.934 36.0578C134.959 35.9668 135.045 35.8552 135.129 35.8235C135.341 35.7449 135.565 35.6986 135.788 35.6552C135.969 35.62 136.062 35.6767 136.013 35.8921C135.919 36.3028 135.844 36.7174 135.748 37.1989H137.185C137.14 37.4272 137.099 37.5847 137.079 37.7448C137.054 37.958 136.96 38.0439 136.734 38.0297C136.426 38.01 136.114 38.037 135.806 38.0263C135.634 38.0207 135.574 38.0855 135.543 38.249C135.351 39.2725 135.143 40.293 134.955 41.3166C134.914 41.5376 134.923 41.7706 134.936 41.9963C134.951 42.2731 135.164 42.392 135.557 42.4096C135.705 42.416 135.951 42.2388 135.97 42.5864C135.999 43.1091 135.943 43.2224 135.578 43.2718C135.405 43.2954 135.227 43.31 135.054 43.3018C134.197 43.2623 133.734 42.7426 133.857 41.8955C133.986 40.999 134.169 40.1102 134.326 39.218C134.394 38.8361 134.456 38.4533 134.528 38.0319Z" fill="#858282"/>
<path d="M104.099 43.3878C103.623 43.2586 103.217 43.1544 102.814 43.0363C102.61 42.9763 102.527 42.8484 102.648 42.6377C102.688 42.5673 102.704 42.4827 102.73 42.4042C102.802 42.1888 102.905 42.1158 103.143 42.2334C103.647 42.4836 104.177 42.5784 104.726 42.3583C105.351 42.1077 105.515 41.282 105.008 40.8348C104.77 40.6258 104.481 40.4769 104.218 40.2967C103.686 39.9323 103.309 39.4675 103.38 38.7822C103.46 38.0187 103.911 37.5282 104.61 37.2549C105.265 36.9991 105.922 37.0248 106.58 37.242C106.758 37.3008 106.837 37.4055 106.767 37.5935C106.705 37.7574 106.689 37.9784 106.572 38.0681C106.485 38.1338 106.266 38.0381 106.11 37.9964C105.623 37.8664 105.15 37.8449 104.728 38.1788C104.347 38.4801 104.29 38.9431 104.632 39.2843C104.862 39.5143 105.169 39.6637 105.419 39.8757C105.698 40.1134 106.018 40.3413 106.204 40.6443C106.661 41.3824 106.297 42.5471 105.493 42.9295C105.046 43.1419 104.547 43.2441 104.099 43.3878Z" fill="#858282"/>
<path d="M85.3806 43.3236C85.1598 43.261 84.7438 43.1558 84.3364 43.0236C84.1305 42.9567 84.064 42.8335 84.1957 42.5992C84.4299 42.1838 84.4067 42.1791 84.8686 42.3288C85.4106 42.5044 85.9553 42.5996 86.4656 42.2331C86.9494 41.886 86.9884 41.195 86.5287 40.8182C86.2748 40.6105 85.9789 40.4552 85.7087 40.2659C85.1799 39.896 84.8227 39.4201 84.9149 38.7377C85.0251 37.9215 85.5402 37.4434 86.2975 37.1945C86.8915 36.9988 87.4773 37.0688 88.0661 37.2331C88.317 37.3031 88.3693 37.4241 88.2831 37.6619C88.1197 38.1125 88.1275 38.1159 87.6879 38.0082C87.3028 37.9138 86.9249 37.8567 86.5334 38.0077C85.8841 38.2584 85.7353 38.9566 86.2709 39.4076C86.6166 39.699 87.0159 39.9243 87.3748 40.2011C88.1408 40.7921 88.0275 41.9044 87.5283 42.5039C87.021 43.1129 86.3361 43.2764 85.3806 43.3236Z" fill="#858282"/>
<path d="M108.272 43.3585C107.904 43.2568 107.478 43.1487 107.06 43.0178C106.864 42.9564 106.797 42.8444 106.923 42.6204C107.173 42.1728 107.152 42.1754 107.649 42.3406C108.159 42.5101 108.676 42.5809 109.163 42.2603C109.68 41.92 109.734 41.2008 109.257 40.8047C109.013 40.6021 108.728 40.448 108.461 40.2738C107.935 39.9313 107.579 39.461 107.635 38.8216C107.708 38.0006 108.214 37.4706 108.98 37.2088C109.585 37.0015 110.197 37.0453 110.806 37.232C111.051 37.3067 111.108 37.4264 111.017 37.6654C110.842 38.1276 110.851 38.1311 110.392 38.0023C109.887 37.8598 109.386 37.8259 108.964 38.201C108.572 38.5499 108.567 39.0091 108.959 39.3606C109.217 39.5923 109.521 39.7751 109.816 39.9631C110.488 40.3922 110.786 40.9986 110.618 41.7771C110.463 42.4929 109.972 42.9397 109.287 43.156C108.986 43.2512 108.665 43.2826 108.272 43.3585Z" fill="#858282"/>
<path d="M53.5162 43.1472H52.4904C52.5864 42.6069 52.673 42.0928 52.77 41.58C53.1002 39.826 53.4334 38.0721 53.7679 36.3186C53.8803 35.7311 53.9982 35.1449 54.1204 34.5591C54.1355 34.487 54.1895 34.3681 54.2307 34.366C54.5527 34.3501 54.8761 34.3574 55.2093 34.3574C54.6376 37.3267 54.0797 40.2213 53.5162 43.1472Z" fill="#858282"/>
<path d="M129.354 43.1367H128.315C128.51 42.1291 128.701 41.1601 128.885 40.1889C129.227 38.3848 129.566 36.5806 129.903 34.7756C129.982 34.349 129.974 34.3482 130.404 34.3503C130.606 34.3512 130.807 34.3503 131.048 34.3503C130.473 37.3299 129.913 40.2391 129.354 43.1367Z" fill="#858282"/>
<path d="M54.8857 43.1636C54.9985 42.5568 55.1005 41.9904 55.2095 41.4252C55.4543 40.1587 55.7057 38.8936 55.948 37.6268C56.0303 37.1963 56.0209 37.1942 56.4587 37.2028C56.6337 37.2066 56.8087 37.2109 56.9837 37.2182C57.0008 37.2186 57.0171 37.2401 57.069 37.277C56.9545 37.874 56.837 38.4889 56.7186 39.1039C56.4802 40.3493 56.2327 41.5934 56.0089 42.8418C55.9634 43.098 55.8832 43.201 55.6152 43.1692C55.3849 43.1418 55.1486 43.1636 54.8857 43.1636Z" fill="#858282"/>
<path d="M125.677 43.1657C125.8 42.537 125.914 41.9628 126.022 41.3873C126.263 40.1115 126.506 38.836 126.737 37.5589C126.779 37.3228 126.854 37.1971 127.125 37.1941C127.882 37.1864 127.888 37.1765 127.749 37.9078C127.431 39.578 127.104 41.2465 126.788 42.9172C126.752 43.1039 126.681 43.1824 126.484 43.17C126.229 43.1537 125.972 43.1657 125.677 43.1657Z" fill="#858282"/>
<path d="M131.771 43.164C131.493 43.164 131.206 43.173 130.921 43.1559C130.863 43.1529 130.79 43.058 130.763 42.9902C130.74 42.9301 130.767 42.8482 130.781 42.7774C131.008 41.6255 131.238 40.4745 131.463 39.3231C131.587 38.6863 131.697 38.0473 131.828 37.4126C131.845 37.3327 131.95 37.2255 132.027 37.2139C132.218 37.1843 132.418 37.213 132.613 37.2001C132.844 37.1847 132.932 37.2576 132.881 37.5035C132.721 38.2692 132.573 39.0378 132.423 39.8059C132.208 40.9067 131.995 42.0083 131.771 43.164Z" fill="#858282"/>
<path d="M89.6583 43.1464H88.6093C88.6788 42.7812 88.7418 42.4413 88.8087 42.1018C89.0862 40.6852 89.3637 39.2681 89.6441 37.8515C89.7732 37.1997 89.7758 37.2001 90.435 37.2009H90.8076C90.4187 39.2119 90.0404 41.1706 89.6583 43.1464Z" fill="#858282"/>
<path d="M127.638 36.0998C127.276 36.0899 126.994 35.8152 127 35.4788C127.006 35.1127 127.362 34.7441 127.709 34.7449C128.052 34.7462 128.369 35.0943 128.349 35.4487C128.33 35.7959 127.987 36.1092 127.638 36.0998Z" fill="#858282"/>
<path d="M56.8591 36.0906C56.4787 36.091 56.1991 35.8206 56.2021 35.4559C56.2051 35.1155 56.5649 34.7469 56.896 34.7461C57.2262 34.7448 57.5642 35.0812 57.5534 35.4018C57.541 35.7807 57.2292 36.0901 56.8591 36.0906Z" fill="#858282"/>
<path d="M132.693 36.0976C132.294 36.0998 132.058 35.862 132.062 35.4621C132.066 35.0595 132.373 34.7488 132.765 34.7514C133.079 34.754 133.373 35.0497 133.38 35.3694C133.388 35.7638 133.075 36.0955 132.693 36.0976Z" fill="#858282"/>
<path d="M90.568 36.0927C90.1966 36.0927 89.9496 35.848 89.9444 35.4751C89.9397 35.0846 90.2622 34.7554 90.6422 34.7631C90.9896 34.7704 91.255 35.0502 91.2507 35.4056C91.2456 35.7974 90.9523 36.0922 90.568 36.0927Z" fill="#858282"/>
<path d="M141.901 7.86565H142.176C142.478 7.86565 142.74 7.77338 142.74 7.51117C142.74 7.30132 142.609 7.1567 142.215 7.1567C142.058 7.1567 141.966 7.16957 141.901 7.18287V7.86565ZM141.901 9.09988H141.494V6.90736C141.717 6.86788 141.953 6.84127 142.255 6.84127C142.623 6.84127 142.806 6.90736 142.95 7.01207C143.082 7.10434 143.173 7.27471 143.173 7.47169C143.173 7.74763 142.977 7.918 142.74 7.99697V8.02315C142.937 8.10211 143.042 8.27248 143.108 8.54842C143.173 8.8896 143.213 9.02092 143.266 9.09988H142.845C142.78 9.02092 142.727 8.82394 142.675 8.52182C142.623 8.28579 142.478 8.18064 142.163 8.18064H141.901V9.09988ZM142.268 6.22459C141.323 6.22459 140.602 6.99877 140.602 7.94461C140.602 8.91578 141.323 9.67751 142.294 9.67751C143.239 9.69039 143.934 8.91578 143.934 7.95749C143.934 6.99877 143.239 6.22459 142.281 6.22459H142.268ZM142.294 5.85638C143.475 5.85638 144.407 6.77561 144.407 7.94461C144.407 9.13893 143.475 10.0577 142.281 10.0577C141.087 10.0577 140.142 9.13893 140.142 7.94461C140.142 6.77561 141.087 5.85638 142.281 5.85638H142.294Z" fill="#858282"/>
</g>
<defs>
<clipPath id="clip0_1_1002">
<rect width="180" height="46" fill="white"/>
</clipPath>
</defs>
</svg>
